<svg xmlns="http://www.w3.org/2000/svg" width="1320" height="900" viewBox="0 0 1350 900" id="lineMagic">
  <defs>
    <style>
      
        #lineMagic{
          width:50%;
        }

      .cls-1 {
        fill: none;
        stroke: #0033ff;
        stroke-linecap: round;
        stroke-miterlimit: 10;
        stroke-width: 9px;
        stroke-dasharray:6500;
        stroke-dashoffset:6500;
        animation: drawing 2s 1 linear;
        filter: url(#AI_GaussianBlur_7);
      }

      .cls-3{
        fill: none;
        stroke:#0099ff;
        stroke-linecap: round;
        stroke-miterlimit: 10;
        stroke-width:9px;
         stroke-dasharray:6500;
        stroke-dashoffset:6500;
        animation: drawing 2s 1 linear ;
        filter: url(#AI_GaussianBlur_4);
      }
      .cls-5{
        fill: none;
        stroke:white;
        stroke-linecap: round;
        stroke-miterlimit: 10;
        stroke-width:5px;
         stroke-dasharray:6500;
        stroke-dashoffset:6500;
        animation: drawing 2s 1 linear ;
        <!-- filter: url(#AI_GaussianBlur_4); -->
      }

      @keyframes drawing{
        0%{
          stroke-dashoffset:6500;
          opacity:1;
          stroke-width:initial;
        }
        95%{
          stroke-dashoffset:0;
          opacity:1
          stroke:#0033ff;
        }
        100%{
          stroke-dashoffset:0;
          opacity:0
        }

      }

  </style>
      <filter id="AI_GaussianBlur_4" name="AI_GaussianBlur_4">
      <feGaussianBlur stdDeviation="4"/>
    </filter>
    <filter id="AI_GaussianBlur_7" name="AI_GaussianBlur_7">
      <feGaussianBlur stdDeviation="7"/>
    </filter>
  </defs>
  <g id="Layer_2" data-name="Layer 2">
    <g id="Layer_1-2" data-name="Layer 1">
      <g>
  
  <path class="cls-1" d="M118.5,916.88s239.12,7.72,324-77.13,77.13-92.56,77.13-115.7S481,685.48,450.18,700.9s-223.69,216-254.55,277.69,15.43,38.57,15.43,38.57,123.42-92.56,138.84-108,11.4-56-2-51.12-52,89.69-52,128.25,15.43,30.86,30.85,38.57,108-38.57,123.42-54C461.75,959.31,536.35,887,542.74,886c25.58-3.86,43-7.72,40.8,11.57s-87.08-3.86-110.22,11.57-84.85,100.27-61.71,108S511.89,994,535,970.88,542.74,940,542.74,940s-15.43,7.72-15.43,15.43,0,46.28,7.72,54,77.13,23.14,185.12-84.84c23.14-15.43,46.28-15.43,54-7.72s0,38.57-15.43,38.57,61.71-30.85,38.57-38.57S666.16,940,666.16,978.59s15.42,54,54,46.28S1000.68,807,1021,793.47c23.14-15.43,30.85-38.57-15.43-38.57C960.57,754.9,859,940,835.85,1048c-1.61,7.54-23.14-15.43-23.14-23.14S905.27,893.74,1005.55,886s-15.43,15.43-15.43,15.43-123.41,7.71-123.41,46.28,0,123.41,100.27,69.42,146.56-38.57,169.7-61.71,46.28-30.85,30.85-46.28-54-7.71-69.42,7.71-69.42,46.28-61.71,77.14,38.57,38.56,69.43,30.85c0,0,100.27-38.57,138.84-92.56,15.42-7.71,30.85-15.43,46.28-15.43s7.71,15.43,7.71,15.43L1237,924.6s-84.84,54-46.28,84.84,108-46.28,115.71-54S1406.65,785.75,1437.5,832c7.72,15.43-77.13,30.86-84.84,38.57s-77.14,131.13-69.42,162,54,61.71,77.13,38.57,23.14-38.57,23.14-54" transform="translate(-118.5 -694.69)"/>
  <path class="cls-3" d="M118.5,916.88s239.12,7.72,324-77.13,77.13-92.56,77.13-115.7S481,685.48,450.18,700.9s-223.69,216-254.55,277.69,15.43,38.57,15.43,38.57,123.42-92.56,138.84-108,11.4-56-2-51.12-52,89.69-52,128.25,15.43,30.86,30.85,38.57,108-38.57,123.42-54C461.75,959.31,536.35,887,542.74,886c25.58-3.86,43-7.72,40.8,11.57s-87.08-3.86-110.22,11.57-84.85,100.27-61.71,108S511.89,994,535,970.88,542.74,940,542.74,940s-15.43,7.72-15.43,15.43,0,46.28,7.72,54,77.13,23.14,185.12-84.84c23.14-15.43,46.28-15.43,54-7.72s0,38.57-15.43,38.57,61.71-30.85,38.57-38.57S666.16,940,666.16,978.59s15.42,54,54,46.28S1000.68,807,1021,793.47c23.14-15.43,30.85-38.57-15.43-38.57C960.57,754.9,859,940,835.85,1048c-1.61,7.54-23.14-15.43-23.14-23.14S905.27,893.74,1005.55,886s-15.43,15.43-15.43,15.43-123.41,7.71-123.41,46.28,0,123.41,100.27,69.42,146.56-38.57,169.7-61.71,46.28-30.85,30.85-46.28-54-7.71-69.42,7.71-69.42,46.28-61.71,77.14,38.57,38.56,69.43,30.85c0,0,100.27-38.57,138.84-92.56,15.42-7.71,30.85-15.43,46.28-15.43s7.71,15.43,7.71,15.43L1237,924.6s-84.84,54-46.28,84.84,108-46.28,115.71-54S1406.65,785.75,1437.5,832c7.72,15.43-77.13,30.86-84.84,38.57s-77.14,131.13-69.42,162,54,61.71,77.13,38.57,23.14-38.57,23.14-54" transform="translate(-118.5 -694.69)"/>
  <path class="cls-5" d="M118.5,916.88s239.12,7.72,324-77.13,77.13-92.56,77.13-115.7S481,685.48,450.18,700.9s-223.69,216-254.55,277.69,15.43,38.57,15.43,38.57,123.42-92.56,138.84-108,11.4-56-2-51.12-52,89.69-52,128.25,15.43,30.86,30.85,38.57,108-38.57,123.42-54C461.75,959.31,536.35,887,542.74,886c25.58-3.86,43-7.72,40.8,11.57s-87.08-3.86-110.22,11.57-84.85,100.27-61.71,108S511.89,994,535,970.88,542.74,940,542.74,940s-15.43,7.72-15.43,15.43,0,46.28,7.72,54,77.13,23.14,185.12-84.84c23.14-15.43,46.28-15.43,54-7.72s0,38.57-15.43,38.57,61.71-30.85,38.57-38.57S666.16,940,666.16,978.59s15.42,54,54,46.28S1000.68,807,1021,793.47c23.14-15.43,30.85-38.57-15.43-38.57C960.57,754.9,859,940,835.85,1048c-1.61,7.54-23.14-15.43-23.14-23.14S905.27,893.74,1005.55,886s-15.43,15.43-15.43,15.43-123.41,7.71-123.41,46.28,0,123.41,100.27,69.42,146.56-38.57,169.7-61.71,46.28-30.85,30.85-46.28-54-7.71-69.42,7.71-69.42,46.28-61.71,77.14,38.57,38.56,69.43,30.85c0,0,100.27-38.57,138.84-92.56,15.42-7.71,30.85-15.43,46.28-15.43s7.71,15.43,7.71,15.43L1237,924.6s-84.84,54-46.28,84.84,108-46.28,115.71-54S1406.65,785.75,1437.5,832c7.72,15.43-77.13,30.86-84.84,38.57s-77.14,131.13-69.42,162,54,61.71,77.13,38.57,23.14-38.57,23.14-54" transform="translate(-118.5 -694.69)"/>
        
      </g>
    </g>
  </g>
</svg>


