<svg id="Layer_1" data-name="Layer 1" xmlns="http://www.w3.org/2000/svg" width="300" height="140.35" viewBox="0 0 300 140.35">
  <defs>
    <style>
      .cls-1 {
        fill: none;
        stroke-linecap: round;
        stroke-miterlimit: 10;
        stroke-dasharray:2500;
        stroke-dashoffset:2500;
      }

        
      

      #glow2 {
        stroke: #0033ff;
        stroke-width: 10px;
        animation: drawing 3s 1 linear;
        filter: url(#AI_GaussianBlur_7);
        }

      #glow1{
        stroke:#acf6fc;
        stroke-width:7px;
        animation: drawing 3s 1 linear ;
        filter: url(#AI_GaussianBlur_4);
        }
      #light{
        stroke:#fcf8ac;
        stroke-width:1px;
        animation: drawing 2.8s 1 linear ;
        }

      @keyframes drawing{
        0%{
          stroke-dashoffset:2500;
          opacity:1;
        }

        10%{
          stroke-dashoffset:2500;
          opacity:1;
        }
        95%{
          stroke-dashoffset:0;
          opacity:1
          stroke:#ffffff;
        }
        100%{
          stroke-dashoffset:0;
          opacity:0
          
        }

      }



    </style>
      <filter id="AI_GaussianBlur_4" name="AI_GaussianBlur_4">
      <feGaussianBlur stdDeviation="4"/>
    </filter>
    <filter id="AI_GaussianBlur_7" name="AI_GaussianBlur_7">
      <feGaussianBlur stdDeviation="7"/>
    </filter>
  </defs>
  <path id="glow2" class="cls-1" d="M6,99.68s52-42,58-64c2-9-3-7-5-5-1.56,1.56-26.36,32.12-34.67,69.47a7.69,7.69,0,0,1-1.63,3.37c-1.8,2.08-1.75-.51-1.4-3.08a17.53,17.53,0,0,1,2.47-6.81c4-6.45,14.36-21.08,27.64-23.25a5.65,5.65,0,0,1,3.89.67c6.61,4.06-4.47,17-6.3,21.63-2,5-3,13,1,13s9-2,11-5,14-21,19-25,13-6,16-5,7,2,7,6c0,1.83.42,1.77.88,1.17a2.77,2.77,0,0,0-.53-3.77c-2.83-2.34-14.84-5-23.72.59a15.07,15.07,0,0,0-4.27,4.15C73.49,81.5,74.11,82.35,70,94.68c-5,15,8.14,11,8.14,11s10.86-3,18.86-15a84.47,84.47,0,0,0,11-25c1-3,4.58-3.44,2.29,1.78-2.16,4.93-9.42,19.47-14.43,22.76a7,7,0,0,0-2.12,2,7.13,7.13,0,0,0-1.11,4.9c.86,6.6,9.08,9.39,13.93,4.84a22.86,22.86,0,0,0,4.37-6c7.07-13.28,12-23.69,22-26.49s12,.21,12,.21,6,5,0,8-3-2-3-2l4.24-2.83a1.53,1.53,0,0,0,0-2.53c-4.57-3.21-17.21-9.45-25.29,12.36-10,27,11,22,11,22s19-11,24-20,36-38.81,34.48-51.91c-.79-7-4.89-4.82-8.53-1.27a35.33,35.33,0,0,0-7.9,12l-24.63,60.7a15.63,15.63,0,0,1-5.56,7.07c-2.16,1.48-3.65,1.48.14-5.56,7-13,29.59-33.37,33-35.5,4-2.5,6-1.5,7,1.5s-1.74,8.47-3,11c-2,4-3,6-14,7-1.41.12-3-3-1-4s2-1,5-1,6,4,5,6-4,7-4,9,0,5,3,6,12-5.11,15-9.06,13-18.94,20-23.94,12.92-5.21,14-4,3,3,0,8-14,15-20,15c-3.4,0-2.64-.82-1.34-1.52a11.94,11.94,0,0,1,3.71-1.24c3.14-.54,10.72-2.12,14.63-5.24,5-4,8.29-12,6.65-13.5S211,65.68,202,84.68s-3.44,20.07-1.22,20.53S217,107.68,225,97.68s19.73-26.41,26.87-28.21a21.65,21.65,0,0,1,12.85.71s7.43,4,2.29,3.93a10.4,10.4,0,0,1-6.32-2.26c-3.91-3.06-8.69-4.17-10.69-3.17-1.79.89-21,15-14,28s21,0,22-2c.45-.9,25.34-63.51,27-66,2-3,9.73-3.4,1.37,11.8S264,75.68,262,79.68s-4,18-1,20,12,4,18-9,7.37-18.28,7.37-18.28"/>
  <path id="glow1" class="cls-1" d="M7,99.68s52-42,58-64c2-9-3-7-5-5-1.56,1.56-26.36,32.12-34.67,69.47a7.69,7.69,0,0,1-1.63,3.37c-1.8,2.08-1.75-.51-1.4-3.08a17.53,17.53,0,0,1,2.47-6.81c4-6.45,14.36-21.08,27.64-23.25a5.65,5.65,0,0,1,3.89.67c6.61,4.06-4.47,17-6.3,21.63-2,5-3,13,1,13s9-2,11-5,14-21,19-25,13-6,16-5,7,2,7,6c0,1.83.42,1.77.88,1.17a2.77,2.77,0,0,0-.53-3.77c-2.83-2.34-14.84-5-23.72.59a15.07,15.07,0,0,0-4.27,4.15C74.49,81.5,75.11,82.35,71,94.68c-5,15,8.14,11,8.14,11s10.86-3,18.86-15a84.47,84.47,0,0,0,11-25c1-3,4.58-3.44,2.29,1.78-2.16,4.93-9.42,19.47-14.43,22.76a7,7,0,0,0-2.12,2,7.13,7.13,0,0,0-1.11,4.9c.86,6.6,9.08,9.39,13.93,4.84a22.86,22.86,0,0,0,4.37-6c7.07-13.28,12-23.69,22-26.49s12,.21,12,.21,6,5,0,8-3-2-3-2l4.24-2.83a1.53,1.53,0,0,0,0-2.53c-4.57-3.21-17.21-9.45-25.29,12.36-10,27,11,22,11,22s19-11,24-20,36-38.81,34.48-51.91c-.79-7-4.89-4.82-8.53-1.27a35.33,35.33,0,0,0-7.9,12l-24.63,60.7a15.63,15.63,0,0,1-5.56,7.07c-2.16,1.48-3.65,1.48.14-5.56,7-13,29.59-33.37,33-35.5,4-2.5,6-1.5,7,1.5s-1.74,8.47-3,11c-2,4-3,6-14,7-1.41.12-3-3-1-4s2-1,5-1,6,4,5,6-4,7-4,9,0,5,3,6,12-5.11,15-9.06,13-18.94,20-23.94,12.92-5.21,14-4,3,3,0,8-14,15-20,15c-3.4,0-2.64-.82-1.34-1.52a11.94,11.94,0,0,1,3.71-1.24c3.14-.54,10.72-2.12,14.63-5.24,5-4,8.29-12,6.65-13.5S212,65.68,203,84.68s-3.44,20.07-1.22,20.53S218,107.68,226,97.68s19.73-26.41,26.87-28.21a21.65,21.65,0,0,1,12.85.71s7.43,4,2.29,3.93a10.4,10.4,0,0,1-6.32-2.26c-3.91-3.06-8.69-4.17-10.69-3.17-1.79.89-21,15-14,28s21,0,22-2c.45-.9,25.34-63.51,27-66,2-3,9.73-3.4,1.37,11.8S265,75.68,263,79.68s-4,18-1,20,12,4,18-9,7.37-18.28,7.37-18.28"/>
  <path id="light" class="cls-1" d="M8,99.68s52-42,58-64c2-9-3-7-5-5-1.56,1.56-26.36,32.12-34.67,69.47a7.69,7.69,0,0,1-1.63,3.37c-1.8,2.08-1.75-.51-1.4-3.08a17.53,17.53,0,0,1,2.47-6.81c4-6.45,14.36-21.08,27.64-23.25a5.65,5.65,0,0,1,3.89.67c6.61,4.06-4.47,17-6.3,21.63-2,5-3,13,1,13s9-2,11-5,14-21,19-25,13-6,16-5,7,2,7,6c0,1.83.42,1.77.88,1.17a2.77,2.77,0,0,0-.53-3.77c-2.83-2.34-14.84-5-23.72.59a15.07,15.07,0,0,0-4.27,4.15C75.49,81.5,76.11,82.35,72,94.68c-5,15,8.14,11,8.14,11s10.86-3,18.86-15a84.47,84.47,0,0,0,11-25c1-3,4.58-3.44,2.29,1.78-2.16,4.93-9.42,19.47-14.43,22.76a7,7,0,0,0-2.12,2,7.13,7.13,0,0,0-1.11,4.9c.86,6.6,9.08,9.39,13.93,4.84a22.86,22.86,0,0,0,4.37-6c7.07-13.28,12-23.69,22-26.49s12,.21,12,.21,6,5,0,8-3-2-3-2l4.24-2.83a1.53,1.53,0,0,0,0-2.53c-4.57-3.21-17.21-9.45-25.29,12.36-10,27,11,22,11,22s19-11,24-20,36-38.81,34.48-51.91c-.79-7-4.89-4.82-8.53-1.27a35.33,35.33,0,0,0-7.9,12l-24.63,60.7a15.63,15.63,0,0,1-5.56,7.07c-2.16,1.48-3.65,1.48.14-5.56,7-13,29.59-33.37,33-35.5,4-2.5,6-1.5,7,1.5s-1.74,8.47-3,11c-2,4-3,6-14,7-1.41.12-3-3-1-4s2-1,5-1,6,4,5,6-4,7-4,9,0,5,3,6,12-5.11,15-9.06,13-18.94,20-23.94,12.92-5.21,14-4,3,3,0,8-14,15-20,15c-3.4,0-2.64-.82-1.34-1.52a11.94,11.94,0,0,1,3.71-1.24c3.14-.54,10.72-2.12,14.63-5.24,5-4,8.29-12,6.65-13.5S213,65.68,204,84.68s-3.44,20.07-1.22,20.53S219,107.68,227,97.68s19.73-26.41,26.87-28.21a21.65,21.65,0,0,1,12.85.71s7.43,4,2.29,3.93a10.4,10.4,0,0,1-6.32-2.26c-3.91-3.06-8.69-4.17-10.69-3.17-1.79.89-21,15-14,28s21,0,22-2c.45-.9,25.34-63.51,27-66,2-3,9.73-3.4,1.37,11.8S266,75.68,264,79.68s-4,18-1,20,12,4,18-9,7.37-18.28,7.37-18.28"/>
</svg>
